<svg xmlns="http://www.w3.org/2000/svg" viewBox="-59.54 -54.5 250 210" preserveAspectRatio="xMidYMid meet" fill="none" stroke-linejoin="round" stroke-linecap="round">
<g transform="translate(14 -24)"><polygon points="155.88,83 145.49,89 145.49,96 155.88,90" fill="#ff4fa3" fill-opacity=".14" stroke="#ff4fa3" stroke-opacity=".75" stroke-width="1.1"/><polygon points="-10.39,-1 145.49,89 145.49,96 -10.39,6" fill="#ff4fa3" fill-opacity=".09" stroke="#ff4fa3" stroke-opacity=".75" stroke-width="1.1"/><polygon points="0,-7 155.88,83 145.49,89 -10.39,-1" fill="#ff4fa3" fill-opacity=".2" stroke="#ff4fa3" stroke-opacity=".85" stroke-width="1.1"/><g><line x1="10.39" y1="2" x2="5.2" y2="5" stroke="#ff4fa3" stroke-opacity=".55" stroke-width="1"/><line x1="23.38" y1="9.5" x2="18.19" y2="12.5" stroke="#ff4fa3" stroke-opacity=".55" stroke-width="1"/><line x1="36.37" y1="17" x2="31.18" y2="20" stroke="#ff4fa3" stroke-opacity=".55" stroke-width="1"/><line x1="49.36" y1="24.5" x2="44.17" y2="27.5" stroke="#ff4fa3" stroke-opacity=".55" stroke-width="1"/><line x1="62.35" y1="32" x2="57.16" y2="35" stroke="#ff4fa3" stroke-opacity=".55" stroke-width="1"/><line x1="75.34" y1="39.5" x2="70.15" y2="42.5" stroke="#ff4fa3" stroke-opacity=".55" stroke-width="1"/><line x1="88.33" y1="47" x2="83.14" y2="50" stroke="#ff4fa3" stroke-opacity=".55" stroke-width="1"/><line x1="101.32" y1="54.5" x2="96.13" y2="57.5" stroke="#ff4fa3" stroke-opacity=".55" stroke-width="1"/><line x1="114.32" y1="62" x2="109.12" y2="65" stroke="#ff4fa3" stroke-opacity=".55" stroke-width="1"/><line x1="127.31" y1="69.5" x2="122.11" y2="72.5" stroke="#ff4fa3" stroke-opacity=".55" stroke-width="1"/><line x1="140.3" y1="77" x2="135.1" y2="80" stroke="#ff4fa3" stroke-opacity=".55" stroke-width="1"/></g></g><g transform="translate(0 6)"><polygon points="155.88,74 116.91,96.5 116.91,112.5 155.88,90" fill="#39d0d8" fill-opacity=".14" stroke="#39d0d8" stroke-opacity=".75" stroke-width="1.2"/><polygon points="-38.97,6.5 116.91,96.5 116.91,112.5 -38.97,22.5" fill="#39d0d8" fill-opacity=".09" stroke="#39d0d8" stroke-opacity=".75" stroke-width="1.2"/><path d="M 0,-16 L 155.88,74 L 116.91,96.5 L -38.97,6.5 Z M 0,-9 L -26.85,6.5 L 116.91,89.5 L 143.76,74 Z" fill="#39d0d8" fill-opacity=".22" stroke="#39d0d8" stroke-opacity=".85" stroke-width="1.2"/><polygon points="0,-9 -26.85,6.5 -26.85,16.5 0,1" fill="#39d0d8" fill-opacity=".07" stroke="#39d0d8" stroke-opacity=".4" stroke-width="1"/><polygon points="0,-9 143.76,74 143.76,84 0,1" fill="#39d0d8" fill-opacity=".05" stroke="#39d0d8" stroke-opacity=".4" stroke-width="1"/><polygon points="0,1 143.76,84 116.91,99.5 -26.85,16.5" fill="#39d0d8" fill-opacity=".12" stroke="#39d0d8" stroke-opacity=".5" stroke-width="1"/><g><circle cx="1.32" cy="12.1" r="1.1" fill="#39d0d8" fill-opacity=".5"/><circle cx="-7.63" cy="17.26" r="1.1" fill="#39d0d8" fill-opacity=".5"/><circle cx="11.59" cy="18.02" r="1.1" fill="#39d0d8" fill-opacity=".5"/><circle cx="2.64" cy="23.19" r="1.1" fill="#39d0d8" fill-opacity=".5"/><circle cx="21.86" cy="23.95" r="1.1" fill="#39d0d8" fill-opacity=".5"/><circle cx="12.91" cy="29.12" r="1.1" fill="#39d0d8" fill-opacity=".5"/><circle cx="32.13" cy="29.88" r="1.1" fill="#39d0d8" fill-opacity=".5"/><circle cx="23.18" cy="35.05" r="1.1" fill="#39d0d8" fill-opacity=".5"/><circle cx="42.39" cy="35.81" r="1.1" fill="#39d0d8" fill-opacity=".5"/><circle cx="33.45" cy="40.98" r="1.1" fill="#39d0d8" fill-opacity=".5"/><circle cx="52.66" cy="41.74" r="1.1" fill="#39d0d8" fill-opacity=".5"/><circle cx="43.71" cy="46.9" r="1.1" fill="#39d0d8" fill-opacity=".5"/><circle cx="62.93" cy="47.67" r="1.1" fill="#39d0d8" fill-opacity=".5"/><circle cx="53.98" cy="52.83" r="1.1" fill="#39d0d8" fill-opacity=".5"/><circle cx="73.2" cy="53.6" r="1.1" fill="#39d0d8" fill-opacity=".5"/><circle cx="64.25" cy="58.76" r="1.1" fill="#39d0d8" fill-opacity=".5"/><circle cx="83.47" cy="59.52" r="1.1" fill="#39d0d8" fill-opacity=".5"/><circle cx="74.52" cy="64.69" r="1.1" fill="#39d0d8" fill-opacity=".5"/><circle cx="93.74" cy="65.45" r="1.1" fill="#39d0d8" fill-opacity=".5"/><circle cx="84.79" cy="70.62" r="1.1" fill="#39d0d8" fill-opacity=".5"/><circle cx="104.01" cy="71.38" r="1.1" fill="#39d0d8" fill-opacity=".5"/><circle cx="95.06" cy="76.55" r="1.1" fill="#39d0d8" fill-opacity=".5"/><circle cx="114.27" cy="77.31" r="1.1" fill="#39d0d8" fill-opacity=".5"/><circle cx="105.33" cy="82.48" r="1.1" fill="#39d0d8" fill-opacity=".5"/><circle cx="124.54" cy="83.24" r="1.1" fill="#39d0d8" fill-opacity=".5"/><circle cx="115.59" cy="88.4" r="1.1" fill="#39d0d8" fill-opacity=".5"/></g><g><ellipse cx="146.14" cy="87.62" rx="2.6" ry="3.4" transform="rotate(30 146.14 87.62)" fill="#ff4fa3" fill-opacity=".25" stroke="#ff4fa3" stroke-opacity=".8" stroke-width="1"/><ellipse cx="126.66" cy="98.87" rx="2.6" ry="3.4" transform="rotate(30 126.66 98.87)" fill="#ff4fa3" fill-opacity=".25" stroke="#ff4fa3" stroke-opacity=".8" stroke-width="1"/></g></g><g transform="translate(-14 36)"><polygon points="155.88,83 145.49,89 145.49,96 155.88,90" fill="#ff4fa3" fill-opacity=".14" stroke="#ff4fa3" stroke-opacity=".75" stroke-width="1.1"/><polygon points="-10.39,-1 145.49,89 145.49,96 -10.39,6" fill="#ff4fa3" fill-opacity=".09" stroke="#ff4fa3" stroke-opacity=".75" stroke-width="1.1"/><polygon points="0,-7 155.88,83 145.49,89 -10.39,-1" fill="#ff4fa3" fill-opacity=".2" stroke="#ff4fa3" stroke-opacity=".85" stroke-width="1.1"/><g><line x1="10.39" y1="2" x2="5.2" y2="5" stroke="#ff4fa3" stroke-opacity=".55" stroke-width="1"/><line x1="23.38" y1="9.5" x2="18.19" y2="12.5" stroke="#ff4fa3" stroke-opacity=".55" stroke-width="1"/><line x1="36.37" y1="17" x2="31.18" y2="20" stroke="#ff4fa3" stroke-opacity=".55" stroke-width="1"/><line x1="49.36" y1="24.5" x2="44.17" y2="27.5" stroke="#ff4fa3" stroke-opacity=".55" stroke-width="1"/><line x1="62.35" y1="32" x2="57.16" y2="35" stroke="#ff4fa3" stroke-opacity=".55" stroke-width="1"/><line x1="75.34" y1="39.5" x2="70.15" y2="42.5" stroke="#ff4fa3" stroke-opacity=".55" stroke-width="1"/><line x1="88.33" y1="47" x2="83.14" y2="50" stroke="#ff4fa3" stroke-opacity=".55" stroke-width="1"/><line x1="101.32" y1="54.5" x2="96.13" y2="57.5" stroke="#ff4fa3" stroke-opacity=".55" stroke-width="1"/><line x1="114.32" y1="62" x2="109.12" y2="65" stroke="#ff4fa3" stroke-opacity=".55" stroke-width="1"/><line x1="127.31" y1="69.5" x2="122.11" y2="72.5" stroke="#ff4fa3" stroke-opacity=".55" stroke-width="1"/><line x1="140.3" y1="77" x2="135.1" y2="80" stroke="#ff4fa3" stroke-opacity=".55" stroke-width="1"/></g></g>
</svg>
