<svg xmlns="http://www.w3.org/2000/svg" viewBox="-98.51 -77 250 210" preserveAspectRatio="xMidYMid meet" fill="none" stroke-linejoin="round" stroke-linecap="round">
<g transform="translate(14 -22)"><polygon points="77.94,38 67.55,44 67.55,51 77.94,45" fill="#ff4fa3" fill-opacity=".14" stroke="#ff4fa3" stroke-opacity=".75" stroke-width="1.1"/><polygon points="-10.39,-1 67.55,44 67.55,51 -10.39,6" fill="#ff4fa3" fill-opacity=".09" stroke="#ff4fa3" stroke-opacity=".75" stroke-width="1.1"/><polygon points="0,-7 77.94,38 67.55,44 -10.39,-1" fill="#ff4fa3" fill-opacity=".2" stroke="#ff4fa3" stroke-opacity=".85" stroke-width="1.1"/><g><line x1="10.39" y1="2" x2="5.2" y2="5" stroke="#ff4fa3" stroke-opacity=".55" stroke-width="1"/><line x1="23.38" y1="9.5" x2="18.19" y2="12.5" stroke="#ff4fa3" stroke-opacity=".55" stroke-width="1"/><line x1="36.37" y1="17" x2="31.18" y2="20" stroke="#ff4fa3" stroke-opacity=".55" stroke-width="1"/><line x1="49.36" y1="24.5" x2="44.17" y2="27.5" stroke="#ff4fa3" stroke-opacity=".55" stroke-width="1"/><line x1="62.35" y1="32" x2="57.16" y2="35" stroke="#ff4fa3" stroke-opacity=".55" stroke-width="1"/></g></g><g transform="translate(0 6)"><polygon points="77.94,30 38.97,52.5 38.97,67.5 77.94,45" fill="#39d0d8" fill-opacity=".14" stroke="#39d0d8" stroke-opacity=".75" stroke-width="1.2"/><polygon points="-38.97,7.5 38.97,52.5 38.97,67.5 -38.97,22.5" fill="#39d0d8" fill-opacity=".09" stroke="#39d0d8" stroke-opacity=".75" stroke-width="1.2"/><path d="M 0,-15 L 77.94,30 L 38.97,52.5 L -38.97,7.5 Z M 0,-8 L -26.85,7.5 L 38.97,45.5 L 65.82,30 Z" fill="#39d0d8" fill-opacity=".22" stroke="#39d0d8" stroke-opacity=".85" stroke-width="1.2"/><polygon points="0,-8 -26.85,7.5 -26.85,16.5 0,1" fill="#39d0d8" fill-opacity=".07" stroke="#39d0d8" stroke-opacity=".4" stroke-width="1"/><polygon points="0,-8 65.82,30 65.82,39 0,1" fill="#39d0d8" fill-opacity=".05" stroke="#39d0d8" stroke-opacity=".4" stroke-width="1"/><polygon points="0,1 65.82,39 38.97,54.5 -26.85,16.5" fill="#39d0d8" fill-opacity=".12" stroke="#39d0d8" stroke-opacity=".5" stroke-width="1"/><g><circle cx="2.02" cy="12.5" r="1.1" fill="#39d0d8" fill-opacity=".5"/><circle cx="-6.93" cy="17.67" r="1.1" fill="#39d0d8" fill-opacity=".5"/><circle cx="12.99" cy="18.83" r="1.1" fill="#39d0d8" fill-opacity=".5"/><circle cx="4.04" cy="24" r="1.1" fill="#39d0d8" fill-opacity=".5"/><circle cx="23.96" cy="25.17" r="1.1" fill="#39d0d8" fill-opacity=".5"/><circle cx="15.01" cy="30.33" r="1.1" fill="#39d0d8" fill-opacity=".5"/><circle cx="34.93" cy="31.5" r="1.1" fill="#39d0d8" fill-opacity=".5"/><circle cx="25.98" cy="36.67" r="1.1" fill="#39d0d8" fill-opacity=".5"/><circle cx="45.9" cy="37.83" r="1.1" fill="#39d0d8" fill-opacity=".5"/><circle cx="36.95" cy="43" r="1.1" fill="#39d0d8" fill-opacity=".5"/></g><g><ellipse cx="68.2" cy="43.12" rx="2.6" ry="3.4" transform="rotate(30 68.2 43.12)" fill="#ff4fa3" fill-opacity=".25" stroke="#ff4fa3" stroke-opacity=".8" stroke-width="1"/><ellipse cx="48.71" cy="54.37" rx="2.6" ry="3.4" transform="rotate(30 48.71 54.37)" fill="#ff4fa3" fill-opacity=".25" stroke="#ff4fa3" stroke-opacity=".8" stroke-width="1"/></g></g><g transform="translate(-14 34)"><polygon points="77.94,38 67.55,44 67.55,51 77.94,45" fill="#ff4fa3" fill-opacity=".14" stroke="#ff4fa3" stroke-opacity=".75" stroke-width="1.1"/><polygon points="-10.39,-1 67.55,44 67.55,51 -10.39,6" fill="#ff4fa3" fill-opacity=".09" stroke="#ff4fa3" stroke-opacity=".75" stroke-width="1.1"/><polygon points="0,-7 77.94,38 67.55,44 -10.39,-1" fill="#ff4fa3" fill-opacity=".2" stroke="#ff4fa3" stroke-opacity=".85" stroke-width="1.1"/><g><line x1="10.39" y1="2" x2="5.2" y2="5" stroke="#ff4fa3" stroke-opacity=".55" stroke-width="1"/><line x1="23.38" y1="9.5" x2="18.19" y2="12.5" stroke="#ff4fa3" stroke-opacity=".55" stroke-width="1"/><line x1="36.37" y1="17" x2="31.18" y2="20" stroke="#ff4fa3" stroke-opacity=".55" stroke-width="1"/><line x1="49.36" y1="24.5" x2="44.17" y2="27.5" stroke="#ff4fa3" stroke-opacity=".55" stroke-width="1"/><line x1="62.35" y1="32" x2="57.16" y2="35" stroke="#ff4fa3" stroke-opacity=".55" stroke-width="1"/></g></g>
</svg>
