<svg xmlns="http://www.w3.org/2000/svg" viewBox="-118.5 -85.75 250 210" preserveAspectRatio="xMidYMid meet" fill="none" stroke-linejoin="round" stroke-linecap="round">
<g transform="translate(0 0)"><polygon points="51.96,16 12.99,38.5 12.99,52.5 51.96,30" fill="#39d0d8" fill-opacity=".14" stroke="#39d0d8" stroke-opacity=".75" stroke-width="1.2"/><polygon points="-38.97,8.5 12.99,38.5 12.99,52.5 -38.97,22.5" fill="#39d0d8" fill-opacity=".09" stroke="#39d0d8" stroke-opacity=".75" stroke-width="1.2"/><path d="M 0,-14 L 51.96,16 L 12.99,38.5 L -38.97,8.5 Z M 0,-7 L -26.85,8.5 L 12.99,31.5 L 39.84,16 Z" fill="#39d0d8" fill-opacity=".22" stroke="#39d0d8" stroke-opacity=".85" stroke-width="1.2"/><polygon points="0,-7 -26.85,8.5 -26.85,16.5 0,1" fill="#39d0d8" fill-opacity=".07" stroke="#39d0d8" stroke-opacity=".4" stroke-width="1"/><polygon points="0,-7 39.84,16 39.84,24 0,1" fill="#39d0d8" fill-opacity=".05" stroke="#39d0d8" stroke-opacity=".4" stroke-width="1"/><polygon points="0,1 39.84,24 12.99,39.5 -26.85,16.5" fill="#39d0d8" fill-opacity=".12" stroke="#39d0d8" stroke-opacity=".5" stroke-width="1"/><g><circle cx="1.01" cy="11.92" r="1.1" fill="#39d0d8" fill-opacity=".5"/><circle cx="-7.94" cy="17.08" r="1.1" fill="#39d0d8" fill-opacity=".5"/><circle cx="10.97" cy="17.67" r="1.1" fill="#39d0d8" fill-opacity=".5"/><circle cx="2.02" cy="22.83" r="1.1" fill="#39d0d8" fill-opacity=".5"/><circle cx="20.93" cy="23.42" r="1.1" fill="#39d0d8" fill-opacity=".5"/><circle cx="11.98" cy="28.58" r="1.1" fill="#39d0d8" fill-opacity=".5"/></g><g><ellipse cx="42.22" cy="28.62" rx="2.6" ry="3.4" transform="rotate(30 42.22 28.62)" fill="#ff4fa3" fill-opacity=".25" stroke="#ff4fa3" stroke-opacity=".8" stroke-width="1"/><ellipse cx="22.73" cy="39.87" rx="2.6" ry="3.4" transform="rotate(30 22.73 39.87)" fill="#ff4fa3" fill-opacity=".25" stroke="#ff4fa3" stroke-opacity=".8" stroke-width="1"/></g></g>
</svg>
